<svg width="1300" height="754" viewBox="0 0 1300 754" fill="none" xmlns="http://www.w3.org/2000/svg">
<path d="M577.632 694.523C577.097 694.523 576.682 694.107 576.682 693.573V687.755C576.682 687.22 577.097 686.805 577.632 686.805C578.166 686.805 578.581 687.22 578.581 687.755V693.573C578.581 694.107 578.166 694.523 577.632 694.523Z" fill="#FFD268"/>
<path d="M572.825 695.948L568.728 691.851C568.372 691.495 568.372 690.842 568.728 690.486C569.084 690.13 569.737 690.13 570.094 690.486L574.19 694.582C574.546 694.939 574.546 695.592 574.19 695.948C573.834 696.304 573.24 696.304 572.825 695.948Z" fill="#FFD268"/>
<path d="M568.728 708.237C568.372 707.881 568.372 707.228 568.728 706.872L572.825 702.775C573.181 702.419 573.834 702.419 574.19 702.775C574.546 703.131 574.546 703.784 574.19 704.14L570.094 708.237C569.737 708.593 569.144 708.593 568.728 708.237Z" fill="#FFD268"/>
<path d="M581.017 695.948C580.661 695.592 580.661 694.939 581.017 694.582L585.114 690.486C585.47 690.13 586.123 690.13 586.479 690.486C586.835 690.842 586.835 691.495 586.479 691.851L582.383 695.948C582.026 696.304 581.433 696.304 581.017 695.948Z" fill="#FFD268"/>
<path d="M571.815 700.341H565.997C565.462 700.341 565.047 699.926 565.047 699.391C565.047 698.857 565.462 698.441 565.997 698.441H571.815C572.349 698.441 572.765 698.857 572.765 699.391C572.824 699.866 572.349 700.341 571.815 700.341Z" fill="#FFD268"/>
<path d="M577.455 703.961C577.989 703.961 578.405 704.377 578.405 704.911V710.729C578.405 711.263 577.989 711.679 577.455 711.679C576.921 711.679 576.505 711.263 576.505 710.729V704.911C576.446 704.436 576.921 703.961 577.455 703.961Z" fill="#FFD268"/>
<path d="M582.205 702.597L586.302 706.693C586.658 707.05 586.658 707.703 586.302 708.059C585.945 708.415 585.292 708.415 584.936 708.059L580.839 703.962C580.483 703.606 580.483 702.953 580.839 702.597C581.196 702.181 581.849 702.181 582.205 702.597Z" fill="#FFD268"/>
<path d="M583.214 698.203H589.032C589.566 698.203 589.982 698.619 589.982 699.153C589.982 699.687 589.566 700.103 589.032 700.103H583.214C582.679 700.103 582.264 699.687 582.264 699.153C582.264 698.619 582.679 698.203 583.214 698.203Z" fill="#FFD268"/>
<path d="M45.7044 36.8906C43.5587 48.5459 41.8192 50.2852 30.1641 52.4309C41.8193 54.5766 43.5587 56.3159 45.7044 67.9712C47.8501 56.3159 49.5894 54.5766 61.2447 52.4309C49.5894 50.2852 47.85 48.5459 45.7044 36.8906Z" fill="#FFD268"/>
<path d="M1221.89 709.621C1223.46 707.162 1226.68 706.502 1229.07 708.023C1231.53 709.586 1232.19 712.806 1230.67 715.199C1229.1 717.658 1225.88 718.318 1223.49 716.797C1220.99 715.3 1220.33 712.08 1221.89 709.621ZM1223.16 710.424C1222.06 712.152 1222.57 714.435 1224.29 715.534C1226.02 716.632 1228.31 716.124 1229.4 714.396C1230.5 712.668 1229.99 710.385 1228.27 709.286C1226.5 708.254 1224.21 708.762 1223.16 710.424Z" fill="#FFD268"/>
<path d="M1242.41 698.894C1245.2 694.507 1250.96 693.224 1255.35 696.013C1259.73 698.801 1261.02 704.563 1258.23 708.95C1255.44 713.337 1249.68 714.62 1245.29 711.832C1240.9 709.043 1239.62 703.281 1242.41 698.894ZM1244.73 700.373C1242.79 703.43 1243.71 707.562 1246.77 709.505C1249.83 711.449 1253.96 710.529 1255.9 707.471C1257.84 704.414 1256.92 700.282 1253.87 698.339C1250.74 696.353 1246.68 697.315 1244.73 700.373Z" fill="#FFD268"/>
</svg>
