<svg width="31" height="31" viewBox="0 0 31 31" fill="none" xmlns="http://www.w3.org/2000/svg">
<g clip-path="url(#clip0_352_9891)">
<path d="M10.0519 27.8844C14.7858 27.8844 18.6233 24.0469 18.6233 19.313C18.6233 14.5791 14.7858 10.7416 10.0519 10.7416C5.31803 10.7416 1.48047 14.5791 1.48047 19.313C1.48047 24.0469 5.31803 27.8844 10.0519 27.8844Z" stroke="#081D0D" stroke-width="1.5" stroke-linecap="round" stroke-linejoin="round"/>
<path d="M20.7667 27.8844C25.5006 27.8844 29.3382 24.0469 29.3382 19.313C29.3382 14.5791 25.5006 10.7416 20.7667 10.7416C16.0329 10.7416 12.1953 14.5791 12.1953 19.313C12.1953 24.0469 16.0329 27.8844 20.7667 27.8844Z" stroke="#081D0D" stroke-width="1.5" stroke-linecap="round" stroke-linejoin="round"/>
<path d="M15.4093 19.313C20.1432 19.313 23.9807 15.4755 23.9807 10.7416C23.9807 6.00773 20.1432 2.17017 15.4093 2.17017C10.6754 2.17017 6.83789 6.00773 6.83789 10.7416C6.83789 15.4755 10.6754 19.313 15.4093 19.313Z" stroke="#081D0D" stroke-width="1.5" stroke-linecap="round" stroke-linejoin="round"/>
</g>
<defs>
<clipPath id="clip0_352_9891">
<rect width="30" height="30" fill="white" transform="translate(0.408203 0.0273438)"/>
</clipPath>
</defs>
</svg>
