<svg width="30" height="31" viewBox="0 0 30 31" fill="none" xmlns="http://www.w3.org/2000/svg">
<path d="M9.64272 28.4284C14.3766 28.4284 18.2141 24.5908 18.2141 19.857C18.2141 15.1231 14.3766 11.2855 9.64272 11.2855C4.90885 11.2855 1.07129 15.1231 1.07129 19.857C1.07129 24.5908 4.90885 28.4284 9.64272 28.4284Z" stroke="#081D0D" stroke-width="1.5" stroke-linecap="round" stroke-linejoin="round"/>
<path d="M20.3566 28.4284C25.0905 28.4284 28.928 24.5908 28.928 19.857C28.928 15.1231 25.0905 11.2855 20.3566 11.2855C15.6227 11.2855 11.7852 15.1231 11.7852 19.857C11.7852 24.5908 15.6227 28.4284 20.3566 28.4284Z" stroke="#081D0D" stroke-width="1.5" stroke-linecap="round" stroke-linejoin="round"/>
<path d="M15.0001 19.857C19.734 19.857 23.5716 16.0194 23.5716 11.2855C23.5716 6.55167 19.734 2.71411 15.0001 2.71411C10.2663 2.71411 6.42871 6.55167 6.42871 11.2855C6.42871 16.0194 10.2663 19.857 15.0001 19.857Z" stroke="#081D0D" stroke-width="1.5" stroke-linecap="round" stroke-linejoin="round"/>
</svg>
