<svg width="31" height="31" viewBox="0 0 31 31" fill="none" xmlns="http://www.w3.org/2000/svg">
<g clip-path="url(#clip0_347_8584)">
<path d="M10.0519 28.4285C14.7858 28.4285 18.6233 24.5909 18.6233 19.8571C18.6233 15.1232 14.7858 11.2856 10.0519 11.2856C5.31803 11.2856 1.48047 15.1232 1.48047 19.8571C1.48047 24.5909 5.31803 28.4285 10.0519 28.4285Z" stroke="#081D0D" stroke-width="1.5" stroke-linecap="round" stroke-linejoin="round"/>
<path d="M20.7667 28.4285C25.5006 28.4285 29.3382 24.5909 29.3382 19.8571C29.3382 15.1232 25.5006 11.2856 20.7667 11.2856C16.0329 11.2856 12.1953 15.1232 12.1953 19.8571C12.1953 24.5909 16.0329 28.4285 20.7667 28.4285Z" stroke="#081D0D" stroke-width="1.5" stroke-linecap="round" stroke-linejoin="round"/>
<path d="M15.4093 19.857C20.1432 19.857 23.9807 16.0194 23.9807 11.2855C23.9807 6.55167 20.1432 2.71411 15.4093 2.71411C10.6754 2.71411 6.83789 6.55167 6.83789 11.2855C6.83789 16.0194 10.6754 19.857 15.4093 19.857Z" stroke="#081D0D" stroke-width="1.5" stroke-linecap="round" stroke-linejoin="round"/>
</g>
<defs>
<clipPath id="clip0_347_8584">
<rect width="30" height="30" fill="white" transform="translate(0.408203 0.571289)"/>
</clipPath>
</defs>
</svg>
