<svg width="40" height="40" viewBox="0 0 40 40" fill="none" xmlns="http://www.w3.org/2000/svg">
<g clip-path="url(#clip0_347_8827)">
<path d="M9.28488 17.1428C13.6243 17.1428 17.142 13.625 17.142 9.28561C17.142 4.94623 13.6243 1.42847 9.28488 1.42847C4.9455 1.42847 1.42773 4.94623 1.42773 9.28561C1.42773 13.625 4.9455 17.1428 9.28488 17.1428Z" stroke="#081D0D" stroke-width="2" stroke-linecap="round" stroke-linejoin="round"/>
<path d="M30.7126 17.1428C35.052 17.1428 38.5698 13.625 38.5698 9.28561C38.5698 4.94623 35.052 1.42847 30.7126 1.42847C26.3732 1.42847 22.8555 4.94623 22.8555 9.28561C22.8555 13.625 26.3732 17.1428 30.7126 17.1428Z" stroke="#081D0D" stroke-width="2" stroke-linecap="round" stroke-linejoin="round"/>
<path d="M9.28488 38.5712C13.6243 38.5712 17.142 35.0535 17.142 30.7141C17.142 26.3747 13.6243 22.8569 9.28488 22.8569C4.9455 22.8569 1.42773 26.3747 1.42773 30.7141C1.42773 35.0535 4.9455 38.5712 9.28488 38.5712Z" stroke="#081D0D" stroke-width="2" stroke-linecap="round" stroke-linejoin="round"/>
<path d="M30.7126 38.5712C35.052 38.5712 38.5698 35.0535 38.5698 30.7141C38.5698 26.3747 35.052 22.8569 30.7126 22.8569C26.3732 22.8569 22.8555 26.3747 22.8555 30.7141C22.8555 35.0535 26.3732 38.5712 30.7126 38.5712Z" stroke="#081D0D" stroke-width="2" stroke-linecap="round" stroke-linejoin="round"/>
</g>
<defs>
<clipPath id="clip0_347_8827">
<rect width="40" height="40" fill="white"/>
</clipPath>
</defs>
</svg>
