<svg width="30" height="31" viewBox="0 0 30 31" fill="none" xmlns="http://www.w3.org/2000/svg">
<g clip-path="url(#clip0_347_8724)">
<path d="M18.771 28.2059C20.0906 29.0573 21.6631 29.4283 23.2241 29.2566C24.7851 29.0849 26.2394 28.3809 27.3424 27.2631L28.3067 26.3202C28.7295 25.8878 28.9662 25.3071 28.9662 24.7024C28.9662 24.0976 28.7295 23.5169 28.3067 23.0845L24.2138 19.0345C23.785 18.6131 23.2079 18.377 22.6067 18.377C22.0055 18.377 21.4283 18.6131 20.9996 19.0345V19.0345C20.5671 19.4573 19.9864 19.694 19.3817 19.694C18.777 19.694 18.1963 19.4573 17.7638 19.0345L11.3353 12.6059C11.1208 12.3946 10.9505 12.1427 10.8343 11.865C10.718 11.5872 10.6582 11.2892 10.6582 10.9881C10.6582 10.687 10.718 10.3889 10.8343 10.1112C10.9505 9.83342 11.1208 9.58156 11.3353 9.37022V9.37022C11.7567 8.94143 11.9928 8.36428 11.9928 7.76308C11.9928 7.16188 11.7567 6.58473 11.3353 6.15594L7.26384 2.08451C6.83143 1.66175 6.25072 1.42505 5.64598 1.42505C5.04125 1.42505 4.46054 1.66175 4.02813 2.08451L3.08527 3.04879C1.96744 4.15181 1.26349 5.60608 1.09178 7.16708C0.920067 8.72808 1.29107 10.3006 2.14241 11.6202C6.57822 18.1575 12.2223 23.787 18.771 28.2059V28.2059Z" stroke="#081D0D" stroke-width="1.5" stroke-linecap="round" stroke-linejoin="round"/>
</g>
<defs>
<clipPath id="clip0_347_8724">
<rect width="30" height="30" fill="white" transform="translate(0 0.346924)"/>
</clipPath>
</defs>
</svg>
