<svg width="31" height="31" viewBox="0 0 31 31" fill="none" xmlns="http://www.w3.org/2000/svg">
<g clip-path="url(#clip0_287_63)">
<path d="M9.70824 28.2035C14.4546 28.2035 18.3022 24.3558 18.3022 19.6095C18.3022 14.8632 14.4546 11.0155 9.70824 11.0155C4.96191 11.0155 1.11426 14.8632 1.11426 19.6095C1.11426 24.3558 4.96191 28.2035 9.70824 28.2035Z" stroke="#FFD268" stroke-width="1.5" stroke-linecap="round" stroke-linejoin="round"/>
<path d="M20.4509 28.2035C25.1972 28.2035 29.0449 24.3558 29.0449 19.6095C29.0449 14.8632 25.1972 11.0155 20.4509 11.0155C15.7046 11.0155 11.8569 14.8632 11.8569 19.6095C11.8569 24.3558 15.7046 28.2035 20.4509 28.2035Z" stroke="#FFD268" stroke-width="1.5" stroke-linecap="round" stroke-linejoin="round"/>
<path d="M15.0793 19.6095C19.8257 19.6095 23.6733 15.7618 23.6733 11.0155C23.6733 6.26917 19.8257 2.42151 15.0793 2.42151C10.333 2.42151 6.48535 6.26917 6.48535 11.0155C6.48535 15.7618 10.333 19.6095 15.0793 19.6095Z" stroke="#FFD268" stroke-width="1.5" stroke-linecap="round" stroke-linejoin="round"/>
</g>
<defs>
<clipPath id="clip0_287_63">
<rect width="30.0789" height="30.0789" fill="white" transform="translate(0.0400391 0.273071)"/>
</clipPath>
</defs>
</svg>
