<svg width="31" height="31" viewBox="0 0 31 31" fill="none" xmlns="http://www.w3.org/2000/svg">
<g clip-path="url(#clip0_287_127)">
<path d="M11.4782 5.61216L12.4021 3.22733C12.5579 2.82355 12.832 2.47624 13.1885 2.23089C13.5451 1.98553 13.9674 1.85357 14.4002 1.85229H16.162C16.5947 1.85357 17.0171 1.98553 17.3736 2.23089C17.7301 2.47624 18.0042 2.82355 18.1601 3.22733L19.0839 5.61216L22.2207 7.4169L24.7559 7.03017C25.1781 6.97287 25.6077 7.04236 25.9903 7.22981C26.3728 7.41727 26.691 7.71422 26.9044 8.08293L27.7638 9.58688C27.984 9.96147 28.0855 10.394 28.0548 10.8275C28.0241 11.2609 27.8627 11.6749 27.5919 12.0147L26.0235 14.0128V17.6223L27.6349 19.6204C27.9057 19.9602 28.0671 20.3741 28.0978 20.8076C28.1285 21.241 28.027 21.6736 27.8068 22.0482L26.9474 23.5521C26.734 23.9208 26.4158 24.2178 26.0333 24.4052C25.6507 24.5927 25.221 24.6622 24.7989 24.6049L22.2637 24.2181L19.1269 26.0229L18.203 28.4077C18.0472 28.8115 17.7731 29.1588 17.4166 29.4041C17.06 29.6495 16.6377 29.7815 16.2049 29.7827H14.4002C13.9674 29.7815 13.5451 29.6495 13.1885 29.4041C12.832 29.1588 12.5579 28.8115 12.4021 28.4077L11.4782 26.0229L8.34143 24.2181L5.80621 24.6049C5.38406 24.6622 4.95441 24.5927 4.57186 24.4052C4.1893 24.2178 3.87111 23.9208 3.65771 23.5521L2.79831 22.0482C2.57809 21.6736 2.47663 21.241 2.50732 20.8076C2.53801 20.3741 2.6994 19.9602 2.97019 19.6204L4.53859 17.6223V14.0128L2.92722 12.0147C2.65643 11.6749 2.49504 11.2609 2.46435 10.8275C2.43366 10.394 2.53512 9.96147 2.75534 9.58688L3.61474 8.08293C3.82814 7.71422 4.14633 7.41727 4.52889 7.22981C4.91144 7.04236 5.34109 6.97287 5.76324 7.03017L8.29846 7.4169L11.4782 5.61216ZM10.9841 15.8175C10.9841 16.6674 11.2361 17.4982 11.7083 18.2048C12.1804 18.9114 12.8515 19.4622 13.6367 19.7874C14.4219 20.1126 15.2858 20.1977 16.1194 20.0319C16.9529 19.8661 17.7186 19.4569 18.3195 18.8559C18.9204 18.255 19.3297 17.4894 19.4955 16.6558C19.6613 15.8223 19.5762 14.9583 19.251 14.1731C18.9257 13.388 18.375 12.7169 17.6684 12.2447C16.9617 11.7725 16.1309 11.5205 15.2811 11.5205C14.1414 11.5205 13.0485 11.9732 12.2426 12.7791C11.4368 13.5849 10.9841 14.6779 10.9841 15.8175V15.8175Z" stroke="#FFD268" stroke-width="1.5" stroke-linecap="round" stroke-linejoin="round"/>
</g>
<defs>
<clipPath id="clip0_287_127">
<rect width="30.0789" height="30.0789" fill="white" transform="translate(0.241699 0.778076)"/>
</clipPath>
</defs>
</svg>
