<svg width="98" height="98" viewBox="0 0 98 98" fill="none" xmlns="http://www.w3.org/2000/svg">
<path d="M19.1935 72.276C15.1102 67.7844 12.6602 62.8844 12.6602 54.7177C12.6602 40.426 22.8685 27.7677 37.1602 21.2344L40.8352 26.5427C27.3602 33.8927 24.5018 43.2844 23.6852 49.4094C25.7268 48.1844 28.5852 47.776 31.4435 48.1844C38.7935 49.001 44.5102 54.7177 44.5102 62.476C44.5102 66.151 42.8768 69.826 40.4268 72.6844C37.5685 75.5427 34.3018 76.7677 30.2185 76.7677C25.7268 76.7677 21.6435 74.726 19.1935 72.276ZM60.0268 72.276C55.9435 67.7844 53.4935 62.8844 53.4935 54.7177C53.4935 40.426 63.7018 27.7677 77.9935 21.2344L81.6685 26.5427C68.1935 33.8927 65.3352 43.2844 64.5185 49.4094C66.5602 48.1844 69.4185 47.776 72.2768 48.1844C79.6268 49.001 85.3435 54.7177 85.3435 62.476C85.3435 66.151 83.7102 69.826 81.2602 72.6844C78.8102 75.5427 75.1352 76.7677 71.0518 76.7677C66.5602 76.7677 62.4768 74.726 60.0268 72.276Z" fill="white" fill-opacity="0.15"/>
</svg>
