<svg width="31" height="31" viewBox="0 0 31 31" fill="none" xmlns="http://www.w3.org/2000/svg">
<g clip-path="url(#clip0_287_119)">
<path d="M16.089 15.445C15.7703 15.5834 15.4266 15.6548 15.0792 15.6548C14.7318 15.6548 14.388 15.5834 14.0694 15.445L1.82295 9.77298C1.62409 9.67268 1.45697 9.51915 1.34021 9.32948C1.22344 9.13981 1.16162 8.92146 1.16162 8.69873C1.16162 8.47601 1.22344 8.25765 1.34021 8.06799C1.45697 7.87832 1.62409 7.72479 1.82295 7.62449L14.0694 1.90949C14.388 1.77111 14.7318 1.69971 15.0792 1.69971C15.4266 1.69971 15.7703 1.77111 16.089 1.90949L28.3354 7.58152C28.5342 7.68182 28.7014 7.83535 28.8181 8.02502C28.9349 8.21468 28.9967 8.43304 28.9967 8.65576C28.9967 8.87849 28.9349 9.09684 28.8181 9.28651C28.7014 9.47618 28.5342 9.62971 28.3354 9.73001L16.089 15.445Z" stroke="#FFD268" stroke-width="1.5" stroke-linecap="round" stroke-linejoin="round"/>
<path d="M29.0447 16.4119L15.9389 22.4491C15.659 22.5768 15.3549 22.6429 15.0473 22.6429C14.7396 22.6429 14.4355 22.5768 14.1556 22.4491L1.11426 16.4119" stroke="#FFD268" stroke-width="1.5" stroke-linecap="round" stroke-linejoin="round"/>
<path d="M29.0447 23.3945L15.9389 29.4318C15.659 29.5595 15.3549 29.6256 15.0473 29.6256C14.7396 29.6256 14.4355 29.5595 14.1556 29.4318L1.11426 23.3945" stroke="#FFD268" stroke-width="1.5" stroke-linecap="round" stroke-linejoin="round"/>
</g>
<defs>
<clipPath id="clip0_287_119">
<rect width="30.0789" height="30.0789" fill="white" transform="translate(0.0400391 0.620361)"/>
</clipPath>
</defs>
</svg>
