<svg width="30" height="31" viewBox="0 0 30 31" fill="none" xmlns="http://www.w3.org/2000/svg">
<g clip-path="url(#clip0_347_8778)">
<path d="M24.6412 11.3662C24.6412 16.702 14.9983 29.5805 14.9983 29.5805C14.9983 29.5805 5.35547 16.702 5.35547 11.3662C5.35547 8.8088 6.37141 6.3561 8.1798 4.54772C9.98818 2.73933 12.4409 1.72339 14.9983 1.72339C17.5558 1.72339 20.0085 2.73933 21.8169 4.54772C23.6252 6.3561 24.6412 8.8088 24.6412 11.3662V11.3662Z" stroke="#081D0D" stroke-width="1.5" stroke-linecap="round" stroke-linejoin="round"/>
<path d="M14.9994 14.5816C16.7746 14.5816 18.2137 13.1426 18.2137 11.3674C18.2137 9.59216 16.7746 8.15308 14.9994 8.15308C13.2242 8.15308 11.7852 9.59216 11.7852 11.3674C11.7852 13.1426 13.2242 14.5816 14.9994 14.5816Z" stroke="#081D0D" stroke-width="1.5" stroke-linecap="round" stroke-linejoin="round"/>
</g>
<defs>
<clipPath id="clip0_347_8778">
<rect width="30" height="30" fill="white" transform="translate(0 0.653076)"/>
</clipPath>
</defs>
</svg>
