<svg width="30" height="30" viewBox="0 0 30 30" fill="none" xmlns="http://www.w3.org/2000/svg">
<g clip-path="url(#clip0_312_858)">
<path d="M6.96415 12.8571C10.2187 12.8571 12.857 10.2188 12.857 6.96427C12.857 3.70973 10.2187 1.07141 6.96415 1.07141C3.70961 1.07141 1.07129 3.70973 1.07129 6.96427C1.07129 10.2188 3.70961 12.8571 6.96415 12.8571Z" stroke="#081D0D" stroke-width="2" stroke-linecap="round" stroke-linejoin="round"/>
<path d="M23.0354 12.8571C26.29 12.8571 28.9283 10.2188 28.9283 6.96427C28.9283 3.70973 26.29 1.07141 23.0354 1.07141C19.7809 1.07141 17.1426 3.70973 17.1426 6.96427C17.1426 10.2188 19.7809 12.8571 23.0354 12.8571Z" stroke="#081D0D" stroke-width="2" stroke-linecap="round" stroke-linejoin="round"/>
<path d="M6.96415 28.9285C10.2187 28.9285 12.857 26.2902 12.857 23.0357C12.857 19.7811 10.2187 17.1428 6.96415 17.1428C3.70961 17.1428 1.07129 19.7811 1.07129 23.0357C1.07129 26.2902 3.70961 28.9285 6.96415 28.9285Z" stroke="#081D0D" stroke-width="2" stroke-linecap="round" stroke-linejoin="round"/>
<path d="M23.0354 28.9285C26.29 28.9285 28.9283 26.2902 28.9283 23.0357C28.9283 19.7811 26.29 17.1428 23.0354 17.1428C19.7809 17.1428 17.1426 19.7811 17.1426 23.0357C17.1426 26.2902 19.7809 28.9285 23.0354 28.9285Z" stroke="#081D0D" stroke-width="2" stroke-linecap="round" stroke-linejoin="round"/>
</g>
<defs>
<clipPath id="clip0_312_858">
<rect width="30" height="30" fill="white"/>
</clipPath>
</defs>
</svg>
